<?xml version="1.0" standalone="no"?>
        <!DOCTYPE svg PUBLIC "-//W3C//DTD SVG 1.1//EN" 
        "http://www.w3.org/Graphics/SVG/1.1/DTD/svg11.dtd"> <svg style="color: rgb(51, 51, 51);" xmlns="http://www.w3.org/2000/svg" xmlns:xlink="http://www.w3.org/1999/xlink" width="40" zoomAndPan="magnify" viewBox="0 0 30 30.000001" height="40" preserveAspectRatio="xMidYMid meet" version="1.0"><defs><clipPath id="id1"><path d="M 4.476562 5.082031 L 25.523438 5.082031 L 25.523438 26.128906 L 4.476562 26.128906 Z M 4.476562 5.082031 " clip-rule="nonzero" fill="#333333"></path></clipPath></defs><g clip-path="url(#id1)"><path fill="#333333" d="M 7.464844 5.082031 C 7.050781 5.082031 6.710938 5.417969 6.710938 5.832031 L 6.710938 8.085938 L 5.960938 8.085938 C 5.003906 8.085938 4.480469 8.632812 4.476562 9.621094 L 4.484375 9.6875 C 4.867188 11.871094 5.820312 16.464844 5.953125 17.109375 C 5.820312 17.765625 4.867188 22.488281 4.484375 24.675781 L 4.476562 24.742188 C 4.476562 25.597656 5.007812 26.128906 5.867188 26.128906 L 24.097656 26.128906 C 24.980469 26.128906 25.503906 25.566406 25.503906 24.625 L 25.5 24.558594 C 25.113281 22.378906 24.148438 17.761719 24.011719 17.109375 C 24.144531 16.457031 25.097656 11.871094 25.480469 9.6875 L 25.484375 9.632812 C 25.496094 9.136719 25.371094 8.75 25.109375 8.484375 C 24.855469 8.21875 24.480469 8.085938 24 8.085938 L 23.25 8.085938 L 23.25 5.832031 C 23.25 5.417969 22.914062 5.082031 22.5 5.082031 Z M 7.464844 5.832031 L 22.5 5.832031 L 22.5 8.085938 L 7.464844 8.085938 Z M 5.960938 8.839844 L 24 8.839844 C 24.269531 8.839844 24.464844 8.894531 24.574219 9.007812 C 24.683594 9.121094 24.738281 9.316406 24.734375 9.585938 C 24.320312 11.929688 23.269531 16.980469 23.257812 17.03125 L 23.242188 17.109375 L 23.257812 17.183594 C 23.269531 17.238281 24.335938 22.3125 24.753906 24.65625 C 24.742188 25.289062 24.417969 25.378906 24.097656 25.378906 L 5.867188 25.378906 C 5.4375 25.378906 5.238281 25.191406 5.230469 24.773438 C 5.644531 22.425781 6.695312 17.234375 6.703125 17.183594 L 6.71875 17.105469 L 6.703125 17.03125 C 6.695312 16.980469 5.644531 11.933594 5.230469 9.589844 C 5.238281 9.035156 5.429688 8.839844 5.960938 8.839844 Z M 19.867188 12.597656 L 16.859375 13.351562 L 16.859375 14.101562 L 18.738281 14.101562 L 18.738281 21.617188 L 19.867188 21.617188 Z M 11.820312 12.671875 C 11.011719 12.671875 10.355469 12.90625 9.855469 13.371094 C 9.355469 13.835938 9.113281 14.398438 9.132812 15.066406 L 9.144531 15.101562 L 10.285156 15.101562 C 10.296875 14.625 10.4375 14.28125 10.707031 14.019531 C 10.984375 13.746094 11.359375 13.609375 11.820312 13.609375 C 12.308594 13.609375 12.675781 13.742188 12.925781 14.003906 C 13.175781 14.265625 13.300781 14.644531 13.300781 15.148438 C 13.300781 15.621094 13.191406 15.988281 12.96875 16.25 C 12.75 16.515625 12.378906 16.648438 11.851562 16.648438 L 10.8125 16.648438 L 10.8125 17.578125 L 11.851562 17.578125 C 12.398438 17.578125 12.800781 17.707031 13.054688 17.964844 C 13.308594 18.222656 13.433594 18.621094 13.433594 19.164062 C 13.433594 19.699219 13.289062 20.105469 13.003906 20.378906 C 12.71875 20.652344 12.324219 20.789062 11.820312 20.789062 C 11.328125 20.789062 10.9375 20.652344 10.652344 20.378906 C 10.367188 20.105469 10.226562 19.738281 10.226562 19.273438 L 9.089844 19.273438 L 9.074219 19.3125 C 9.050781 20.050781 9.304688 20.636719 9.832031 21.070312 C 10.355469 21.503906 11.019531 21.71875 11.820312 21.71875 C 12.636719 21.71875 13.308594 21.492188 13.835938 21.03125 C 14.359375 20.570312 14.621094 19.941406 14.621094 19.140625 C 14.621094 18.683594 14.511719 18.265625 14.292969 17.898438 C 14.082031 17.539062 13.726562 17.273438 13.226562 17.109375 L 13.171875 17.082031 C 13.613281 16.894531 13.941406 16.617188 14.160156 16.257812 C 14.378906 15.898438 14.488281 15.535156 14.488281 15.171875 C 14.488281 14.371094 14.25 13.753906 13.765625 13.324219 C 13.28125 12.890625 12.632812 12.671875 11.820312 12.671875 Z M 7.464844 23.121094 C 7.257812 23.121094 7.089844 23.289062 7.089844 23.496094 L 7.089844 24.25 C 7.089844 24.457031 7.257812 24.625 7.464844 24.625 C 7.671875 24.625 7.839844 24.457031 7.839844 24.25 L 7.839844 23.496094 C 7.839844 23.289062 7.671875 23.121094 7.464844 23.121094 Z M 9.34375 23.121094 C 9.136719 23.121094 8.96875 23.289062 8.96875 23.496094 L 8.96875 24.25 C 8.96875 24.457031 9.136719 24.625 9.34375 24.625 C 9.550781 24.625 9.71875 24.457031 9.71875 24.25 L 9.71875 23.496094 C 9.71875 23.289062 9.550781 23.121094 9.34375 23.121094 Z M 11.222656 23.121094 C 11.015625 23.121094 10.847656 23.289062 10.847656 23.496094 L 10.847656 24.25 C 10.847656 24.457031 11.015625 24.625 11.222656 24.625 C 11.429688 24.625 11.597656 24.457031 11.597656 24.25 L 11.597656 23.496094 C 11.597656 23.289062 11.429688 23.121094 11.222656 23.121094 Z M 13.101562 23.121094 C 12.894531 23.121094 12.726562 23.289062 12.726562 23.496094 L 12.726562 24.25 C 12.726562 24.457031 12.894531 24.625 13.101562 24.625 C 13.308594 24.625 13.476562 24.457031 13.476562 24.25 L 13.476562 23.496094 C 13.476562 23.289062 13.308594 23.121094 13.101562 23.121094 Z M 14.980469 23.121094 C 14.773438 23.121094 14.605469 23.289062 14.605469 23.496094 L 14.605469 24.25 C 14.605469 24.457031 14.773438 24.625 14.980469 24.625 C 15.1875 24.625 15.355469 24.457031 15.355469 24.25 L 15.355469 23.496094 C 15.355469 23.289062 15.1875 23.121094 14.980469 23.121094 Z M 16.859375 23.121094 C 16.652344 23.121094 16.484375 23.289062 16.484375 23.496094 L 16.484375 24.25 C 16.484375 24.457031 16.652344 24.625 16.859375 24.625 C 17.070312 24.625 17.238281 24.457031 17.238281 24.25 L 17.238281 23.496094 C 17.238281 23.289062 17.070312 23.121094 16.859375 23.121094 Z M 18.738281 23.121094 C 18.53125 23.121094 18.363281 23.289062 18.363281 23.496094 L 18.363281 24.25 C 18.363281 24.457031 18.53125 24.625 18.738281 24.625 C 18.949219 24.625 19.117188 24.457031 19.117188 24.25 L 19.117188 23.496094 C 19.117188 23.289062 18.949219 23.121094 18.738281 23.121094 Z M 20.621094 23.121094 C 20.410156 23.121094 20.242188 23.289062 20.242188 23.496094 L 20.242188 24.25 C 20.242188 24.457031 20.410156 24.625 20.621094 24.625 C 20.828125 24.625 20.996094 24.457031 20.996094 24.25 L 20.996094 23.496094 C 20.996094 23.289062 20.828125 23.121094 20.621094 23.121094 Z M 22.5 23.121094 C 22.289062 23.121094 22.121094 23.289062 22.121094 23.496094 L 22.121094 24.25 C 22.121094 24.457031 22.289062 24.625 22.5 24.625 C 22.707031 24.625 22.875 24.457031 22.875 24.25 L 22.875 23.496094 C 22.875 23.289062 22.707031 23.121094 22.5 23.121094 Z M 22.5 23.121094 " fill-opacity="1" fill-rule="nonzero"></path></g></svg> 