<?xml version="1.0" standalone="no"?>
        <!DOCTYPE svg PUBLIC "-//W3C//DTD SVG 1.1//EN" 
        "http://www.w3.org/Graphics/SVG/1.1/DTD/svg11.dtd"> <svg style="color: rgb(51, 51, 51);" xmlns="http://www.w3.org/2000/svg" viewBox="0 0 256 256"><rect width="256" height="256" fill="none"></rect><path d="M32,64a8,8,0,0,1,8-8H216a8,8,0,0,1,0,16H40A8,8,0,0,1,32,64Zm8,72H216a8,8,0,0,0,0-16H40a8,8,0,0,0,0,16Zm104,48H40a8,8,0,0,0,0,16H144a8,8,0,0,0,0-16Zm88,0H216V168a8,8,0,0,0-16,0v16H184a8,8,0,0,0,0,16h16v16a8,8,0,0,0,16,0V200h16a8,8,0,0,0,0-16Z" fill="#333333"></path></svg> 